<?xml version="1.0" encoding="UTF-8" standalone="no"?>
<!-- Created with Inkscape (http://www.inkscape.org/) -->

<svg
   xmlns:dc="http://purl.org/dc/elements/1.1/"
   xmlns:cc="http://creativecommons.org/ns#"
   xmlns:rdf="http://www.w3.org/1999/02/22-rdf-syntax-ns#"
   xmlns:svg="http://www.w3.org/2000/svg"
   xmlns="http://www.w3.org/2000/svg"
   xmlns:sodipodi="http://sodipodi.sourceforge.net/DTD/sodipodi-0.dtd"
   xmlns:inkscape="http://www.inkscape.org/namespaces/inkscape"
   width="185.48164mm"
   height="185.48164mm"
   viewBox="0 0 657.21842 657.21842"
   id="svg2"
   version="1.1"
   inkscape:version="0.91 r13725"
   sodipodi:docname="logo.svg">
  <defs
     id="defs4" />
  <sodipodi:namedview
     id="base"
     pagecolor="#ffffff"
     bordercolor="#666666"
     borderopacity="1.0"
     inkscape:pageopacity="0.0"
     inkscape:pageshadow="2"
     inkscape:zoom="0.64"
     inkscape:cx="89.132149"
     inkscape:cy="416.2323"
     inkscape:document-units="px"
     inkscape:current-layer="layer1"
     showgrid="false"
     fit-margin-top="10"
     fit-margin-left="10"
     fit-margin-right="10"
     fit-margin-bottom="10"
     inkscape:window-width="1920"
     inkscape:window-height="1017"
     inkscape:window-x="-8"
     inkscape:window-y="-8"
     inkscape:window-maximized="1" />
  <metadata
     id="metadata7">
    <rdf:RDF>
      <cc:Work
         rdf:about="">
        <dc:format>image/svg+xml</dc:format>
        <dc:type
           rdf:resource="http://purl.org/dc/dcmitype/StillImage" />
        <dc:title></dc:title>
      </cc:Work>
    </rdf:RDF>
  </metadata>
  <g
     inkscape:label="Layer 1"
     inkscape:groupmode="layer"
     id="layer1"
     transform="translate(35.43304,-430.57593)">
    <g
       id="g4247"
       transform="translate(6.3987628e-5,-35.256163)">
      <g
         id="g4221">
        <g
           id="g4192">
          <path
             id="rect4173"
             d="M 13.257812,552.36133 C 5.9127413,552.36133 0,558.27602 0,565.62109 l 0,473.48241 c 0,7.3451 5.9127413,13.2578 13.257812,13.2578 l 123.484378,0 c 7.34507,0 13.25781,-5.9127 13.25781,-13.2578 l 0,-473.48241 c 0,-7.34507 -5.91274,-13.25976 -13.25781,-13.25976 l -123.484378,0 z m 27.53125,20 68.421878,0 c 8.7474,0 15.78906,7.94896 15.78906,17.82226 l 0,264.35743 c 0,9.8733 -7.04166,17.82031 -15.78906,17.82031 l -68.421878,0 C 32.041663,872.36133 25,864.41432 25,854.54102 l 0,-264.35743 c 0,-9.8733 7.041663,-17.82226 15.789062,-17.82226 z M 75,979.86133 a 22.5,22.5 0 0 1 22.5,22.49997 22.5,22.5 0 0 1 -22.5,22.5 22.5,22.5 0 0 1 -22.5,-22.5 22.5,22.5 0 0 1 22.5,-22.49997 z"
             style="opacity:1;fill:#ff6600;fill-opacity:1;stroke:none;stroke-width:20;stroke-linejoin:miter;stroke-miterlimit:4;stroke-dasharray:none;stroke-dashoffset:0;stroke-opacity:0.58823529"
             inkscape:connector-curvature="0" />
          <path
             id="path4179"
             d="m 75,972.36133 a 30,30 0 0 0 -30,29.99997 30,30 0 0 0 30,30 30,30 0 0 0 30,-30 30,30 0 0 0 -30,-29.99997 z m 0,7.5 a 22.5,22.5 0 0 1 22.5,22.49997 22.5,22.5 0 0 1 -22.5,22.5 22.5,22.5 0 0 1 -22.5,-22.5 22.5,22.5 0 0 1 22.5,-22.49997 z"
             style="opacity:0.5;fill:#000000;fill-opacity:1;stroke:none;stroke-width:20;stroke-linejoin:miter;stroke-miterlimit:4;stroke-dasharray:none;stroke-dashoffset:0;stroke-opacity:0.58823529"
             inkscape:connector-curvature="0" />
        </g>
        <path
           style="opacity:1;fill:#4d4d4d;fill-opacity:1;stroke:none;stroke-width:20;stroke-linejoin:miter;stroke-miterlimit:4;stroke-dasharray:none;stroke-dashoffset:0;stroke-opacity:0.58823529"
           d="M 39.847656,592.36133 C 37.161596,592.36133 35,594.05945 35,596.16992 l 0,12.38281 c 0,2.11048 2.161596,3.8086 4.847656,3.8086 l 70.304684,0 c 2.68606,0 4.84766,-1.69812 4.84766,-3.8086 l 0,-12.38281 c 0,-2.11047 -2.1616,-3.80859 -4.84766,-3.80859 l -70.304684,0 z m 0,28 C 37.161596,620.36133 35,622.05945 35,624.16992 l 0,12.38281 c 0,2.11048 2.161596,3.8086 4.847656,3.8086 l 70.304684,0 c 2.68606,0 4.84766,-1.69812 4.84766,-3.8086 l 0,-12.38281 c 0,-2.11047 -2.1616,-3.80859 -4.84766,-3.80859 l -70.304684,0 z m 0,28 C 37.161596,648.36133 35,650.05945 35,652.16992 l 0,12.38281 c 0,2.11048 2.161596,3.8086 4.847656,3.8086 l 70.304684,0 c 2.68606,0 4.84766,-1.69812 4.84766,-3.8086 l 0,-12.38281 c 0,-2.11047 -2.1616,-3.80859 -4.84766,-3.80859 l -70.304684,0 z m 0,28 C 37.161596,676.36133 35,678.05945 35,680.16992 l 0,12.38281 c 0,2.11048 2.161596,3.8086 4.847656,3.8086 l 70.304684,0 c 2.68606,0 4.84766,-1.69812 4.84766,-3.8086 l 0,-12.38281 c 0,-2.11047 -2.1616,-3.80859 -4.84766,-3.80859 l -70.304684,0 z m 0,28 C 37.161596,704.36133 35,706.05945 35,708.16992 l 0,12.38281 c 0,2.11048 2.161596,3.8086 4.847656,3.8086 l 70.304684,0 c 2.68606,0 4.84766,-1.69812 4.84766,-3.8086 l 0,-12.38281 c 0,-2.11047 -2.1616,-3.80859 -4.84766,-3.80859 l -70.304684,0 z m 0,28 C 37.161596,732.36133 35,734.05945 35,736.16992 l 0,12.38281 c 0,2.11048 2.161596,3.8086 4.847656,3.8086 l 70.304684,0 c 2.68606,0 4.84766,-1.69812 4.84766,-3.8086 l 0,-12.38281 c 0,-2.11047 -2.1616,-3.80859 -4.84766,-3.80859 l -70.304684,0 z"
           id="rect4208"
           inkscape:connector-curvature="0" />
      </g>
      <g
         transform="translate(160,0)"
         id="g4227">
        <g
           id="g4229">
          <path
             inkscape:connector-curvature="0"
             style="opacity:1;fill:#ff6600;fill-opacity:1;stroke:none;stroke-width:20;stroke-linejoin:miter;stroke-miterlimit:4;stroke-dasharray:none;stroke-dashoffset:0;stroke-opacity:0.58823529"
             d="M 13.257812,552.36133 C 5.9127413,552.36133 0,558.27602 0,565.62109 l 0,473.48241 c 0,7.3451 5.9127413,13.2578 13.257812,13.2578 l 123.484378,0 c 7.34507,0 13.25781,-5.9127 13.25781,-13.2578 l 0,-473.48241 c 0,-7.34507 -5.91274,-13.25976 -13.25781,-13.25976 l -123.484378,0 z m 27.53125,20 68.421878,0 c 8.7474,0 15.78906,7.94896 15.78906,17.82226 l 0,264.35743 c 0,9.8733 -7.04166,17.82031 -15.78906,17.82031 l -68.421878,0 C 32.041663,872.36133 25,864.41432 25,854.54102 l 0,-264.35743 c 0,-9.8733 7.041663,-17.82226 15.789062,-17.82226 z M 75,979.86133 a 22.5,22.5 0 0 1 22.5,22.49997 22.5,22.5 0 0 1 -22.5,22.5 22.5,22.5 0 0 1 -22.5,-22.5 22.5,22.5 0 0 1 22.5,-22.49997 z"
             id="path4231" />
          <path
             inkscape:connector-curvature="0"
             style="opacity:0.5;fill:#000000;fill-opacity:1;stroke:none;stroke-width:20;stroke-linejoin:miter;stroke-miterlimit:4;stroke-dasharray:none;stroke-dashoffset:0;stroke-opacity:0.58823529"
             d="m 75,972.36133 a 30,30 0 0 0 -30,29.99997 30,30 0 0 0 30,30 30,30 0 0 0 30,-30 30,30 0 0 0 -30,-29.99997 z m 0,7.5 a 22.5,22.5 0 0 1 22.5,22.49997 22.5,22.5 0 0 1 -22.5,22.5 22.5,22.5 0 0 1 -22.5,-22.5 22.5,22.5 0 0 1 22.5,-22.49997 z"
             id="path4233" />
        </g>
        <path
           inkscape:connector-curvature="0"
           id="path4235"
           d="M 39.847656,592.36133 C 37.161596,592.36133 35,594.05945 35,596.16992 l 0,12.38281 c 0,2.11048 2.161596,3.8086 4.847656,3.8086 l 70.304684,0 c 2.68606,0 4.84766,-1.69812 4.84766,-3.8086 l 0,-12.38281 c 0,-2.11047 -2.1616,-3.80859 -4.84766,-3.80859 l -70.304684,0 z m 0,28 C 37.161596,620.36133 35,622.05945 35,624.16992 l 0,12.38281 c 0,2.11048 2.161596,3.8086 4.847656,3.8086 l 70.304684,0 c 2.68606,0 4.84766,-1.69812 4.84766,-3.8086 l 0,-12.38281 c 0,-2.11047 -2.1616,-3.80859 -4.84766,-3.80859 l -70.304684,0 z m 0,28 C 37.161596,648.36133 35,650.05945 35,652.16992 l 0,12.38281 c 0,2.11048 2.161596,3.8086 4.847656,3.8086 l 70.304684,0 c 2.68606,0 4.84766,-1.69812 4.84766,-3.8086 l 0,-12.38281 c 0,-2.11047 -2.1616,-3.80859 -4.84766,-3.80859 l -70.304684,0 z m 0,28 C 37.161596,676.36133 35,678.05945 35,680.16992 l 0,12.38281 c 0,2.11048 2.161596,3.8086 4.847656,3.8086 l 70.304684,0 c 2.68606,0 4.84766,-1.69812 4.84766,-3.8086 l 0,-12.38281 c 0,-2.11047 -2.1616,-3.80859 -4.84766,-3.80859 l -70.304684,0 z m 0,28 C 37.161596,704.36133 35,706.05945 35,708.16992 l 0,12.38281 c 0,2.11048 2.161596,3.8086 4.847656,3.8086 l 70.304684,0 c 2.68606,0 4.84766,-1.69812 4.84766,-3.8086 l 0,-12.38281 c 0,-2.11047 -2.1616,-3.80859 -4.84766,-3.80859 l -70.304684,0 z m 0,28 C 37.161596,732.36133 35,734.05945 35,736.16992 l 0,12.38281 c 0,2.11048 2.161596,3.8086 4.847656,3.8086 l 70.304684,0 c 2.68606,0 4.84766,-1.69812 4.84766,-3.8086 l 0,-12.38281 c 0,-2.11047 -2.1616,-3.80859 -4.84766,-3.80859 l -70.304684,0 z"
           style="opacity:1;fill:#4d4d4d;fill-opacity:1;stroke:none;stroke-width:20;stroke-linejoin:miter;stroke-miterlimit:4;stroke-dasharray:none;stroke-dashoffset:0;stroke-opacity:0.58823529" />
      </g>
      <g
         id="g4237"
         transform="matrix(0.96592583,-0.25881905,0.25881905,0.96592583,172.06508,38.831154)">
        <g
           id="g4239">
          <path
             id="path4241"
             d="M 13.257812,552.36133 C 5.9127413,552.36133 0,558.27602 0,565.62109 l 0,473.48241 c 0,7.3451 5.9127413,13.2578 13.257812,13.2578 l 123.484378,0 c 7.34507,0 13.25781,-5.9127 13.25781,-13.2578 l 0,-473.48241 c 0,-7.34507 -5.91274,-13.25976 -13.25781,-13.25976 l -123.484378,0 z m 27.53125,20 68.421878,0 c 8.7474,0 15.78906,7.94896 15.78906,17.82226 l 0,264.35743 c 0,9.8733 -7.04166,17.82031 -15.78906,17.82031 l -68.421878,0 C 32.041663,872.36133 25,864.41432 25,854.54102 l 0,-264.35743 c 0,-9.8733 7.041663,-17.82226 15.789062,-17.82226 z M 75,979.86133 a 22.5,22.5 0 0 1 22.5,22.49997 22.5,22.5 0 0 1 -22.5,22.5 22.5,22.5 0 0 1 -22.5,-22.5 22.5,22.5 0 0 1 22.5,-22.49997 z"
             style="opacity:1;fill:#ff6600;fill-opacity:1;stroke:none;stroke-width:20;stroke-linejoin:miter;stroke-miterlimit:4;stroke-dasharray:none;stroke-dashoffset:0;stroke-opacity:0.58823529"
             inkscape:connector-curvature="0" />
          <path
             id="path4243"
             d="m 75,972.36133 a 30,30 0 0 0 -30,29.99997 30,30 0 0 0 30,30 30,30 0 0 0 30,-30 30,30 0 0 0 -30,-29.99997 z m 0,7.5 a 22.5,22.5 0 0 1 22.5,22.49997 22.5,22.5 0 0 1 -22.5,22.5 22.5,22.5 0 0 1 -22.5,-22.5 22.5,22.5 0 0 1 22.5,-22.49997 z"
             style="opacity:0.5;fill:#000000;fill-opacity:1;stroke:none;stroke-width:20;stroke-linejoin:miter;stroke-miterlimit:4;stroke-dasharray:none;stroke-dashoffset:0;stroke-opacity:0.58823529"
             inkscape:connector-curvature="0" />
        </g>
        <path
           style="opacity:1;fill:#4d4d4d;fill-opacity:1;stroke:none;stroke-width:20;stroke-linejoin:miter;stroke-miterlimit:4;stroke-dasharray:none;stroke-dashoffset:0;stroke-opacity:0.58823529"
           d="M 39.847656,592.36133 C 37.161596,592.36133 35,594.05945 35,596.16992 l 0,12.38281 c 0,2.11048 2.161596,3.8086 4.847656,3.8086 l 70.304684,0 c 2.68606,0 4.84766,-1.69812 4.84766,-3.8086 l 0,-12.38281 c 0,-2.11047 -2.1616,-3.80859 -4.84766,-3.80859 l -70.304684,0 z m 0,28 C 37.161596,620.36133 35,622.05945 35,624.16992 l 0,12.38281 c 0,2.11048 2.161596,3.8086 4.847656,3.8086 l 70.304684,0 c 2.68606,0 4.84766,-1.69812 4.84766,-3.8086 l 0,-12.38281 c 0,-2.11047 -2.1616,-3.80859 -4.84766,-3.80859 l -70.304684,0 z m 0,28 C 37.161596,648.36133 35,650.05945 35,652.16992 l 0,12.38281 c 0,2.11048 2.161596,3.8086 4.847656,3.8086 l 70.304684,0 c 2.68606,0 4.84766,-1.69812 4.84766,-3.8086 l 0,-12.38281 c 0,-2.11047 -2.1616,-3.80859 -4.84766,-3.80859 l -70.304684,0 z m 0,28 C 37.161596,676.36133 35,678.05945 35,680.16992 l 0,12.38281 c 0,2.11048 2.161596,3.8086 4.847656,3.8086 l 70.304684,0 c 2.68606,0 4.84766,-1.69812 4.84766,-3.8086 l 0,-12.38281 c 0,-2.11047 -2.1616,-3.80859 -4.84766,-3.80859 l -70.304684,0 z m 0,28 C 37.161596,704.36133 35,706.05945 35,708.16992 l 0,12.38281 c 0,2.11048 2.161596,3.8086 4.847656,3.8086 l 70.304684,0 c 2.68606,0 4.84766,-1.69812 4.84766,-3.8086 l 0,-12.38281 c 0,-2.11047 -2.1616,-3.80859 -4.84766,-3.80859 l -70.304684,0 z m 0,28 C 37.161596,732.36133 35,734.05945 35,736.16992 l 0,12.38281 c 0,2.11048 2.161596,3.8086 4.847656,3.8086 l 70.304684,0 c 2.68606,0 4.84766,-1.69812 4.84766,-3.8086 l 0,-12.38281 c 0,-2.11047 -2.1616,-3.80859 -4.84766,-3.80859 l -70.304684,0 z"
           id="path4245"
           inkscape:connector-curvature="0" />
      </g>
    </g>
  </g>
</svg>
